<?xml version="1.0" encoding="utf-8"?>
<!-- Generator: Adobe Illustrator 26.5.3, SVG Export Plug-In . SVG Version: 6.00 Build 0)  -->
<svg version="1.1" id="Layer_1" xmlns="http://www.w3.org/2000/svg" xmlns:xlink="http://www.w3.org/1999/xlink" x="0px" y="0px"
	 viewBox="0 0 792 170" style="enable-background:new 0 0 792 170;" xml:space="preserve">
<style type="text/css">
	.st0{fill:#4B55A5;}
	.st1{enable-background:new    ;}
	.st2{fill:#010101;}
</style>
<g id="Layer_1_00000158011157677362890210000006407369197621457307_">
	<polyline class="st0" points="0.1,171.4 0.1,-0.3 792.1,-0.3 792.1,171.4 	"/>
	<g class="st1">
		<path class="st2" d="M54,72.4c-1.5,1.8-3,3.2-5,4.7c-3.9,2.8-8.2,5.9-13,5.9c-1.6,0-3.2-0.3-4.3-1.3c-0.9-0.9-1.6-1.4-2.1-3
			c-0.3-1.4-0.9-2.6-0.9-4.6c0-2.2,0.7-4.8,1.8-7.3c0.4-0.9,1.3-2.3,1.8-3.2c0.7-1,1-1.5,1.8-2.5c2.4-2.7,6.1-4.6,8.6-4.6
			c2.8,0,4.7,1.5,4.7,3.4c0,0.5-0.2,1.2-0.3,1.6c-0.1,0.4-0.2,0.7-0.6,1.2c-1,1.3-3.1,2.9-4.9,4c-1.6,1-3,2-4.5,2.7
			c-1,0.4-2.2,0.9-3.2,1.2c-0.3,0.2-0.5,0.3-0.6,0.9C33.2,72,33,73.1,33,73.4c0,1.3,0.2,2.2,0.4,3.2l0.1,0.2v0.9l0.4,0.4
			c0.9,1.8,2.2,2.7,4.6,2.7c3.8,0,6.8-2.3,9.5-4.4c2.1-1.6,4-3.4,5.7-5.3l0.2-0.2c0.3,0,0.7,0.6,0.7,0.6S54.4,72,54,72.4z
			 M42.7,57.5c-1.3,0-1.9,0.8-2.8,1.3c-0.5,0.3-1.9,1.8-2.3,2.2c-0.7,0.7-1,1.1-1.5,2.2c-1,2.3-1.6,3.3-2.2,6.8
			c1.9-0.9,2.5-1.1,3.5-1.6s1.9-1,3-1.7c2.2-1.4,5.2-5,5.2-7.6C45.5,57.7,44.5,57.5,42.7,57.5z"/>
		<path class="st2" d="M93.5,72c-0.9,0.9-2.7,2.9-4.4,2.9c-2.8,0-5.2-2.6-7.4-6.9c-1,1.6-1.4,1.8-1.6,2.2c-0.3,0.3-0.6,0.8-0.9,1.2
			C75.8,76,72,80.3,67.8,84.7c-0.7,0.7-1.1,1.6-1.7,2.4c-0.6,0.7-1.1,1.1-1.8,1.1c-0.6,0-1.7-0.8-1.9-2.2
			c-0.1-0.5-0.3-13.3-0.3-14.8c0-1.9,0.3-4.1,1-7.8v-1c-0.3,0.3-0.4,0.3-0.8,0.8c-2.2,3.1-3.4,4.3-4.4,5.5c-1.3,1.4-2.5,2.8-3.6,3.9
			c-0.3,0.3-0.4,0.3-0.5,0.3c-0.3,0-0.5-0.3-0.5-0.5c0-0.1,0-0.2,0.1-0.3c1.7-2.3,3.8-4.2,5.7-6.4c0.6-0.7,1.2-1.4,1.7-2.2
			c0.4-0.6,1-1.3,1.5-1.8c0.5-0.4,1-0.7,1.8-0.7c0.6,0,1.7,0.2,1.8,0.4c0.3,0.8,0.9,1.5,1.4,2.2c0.3,0.6,0.5,1.1,0.5,1.7
			c0,0.3-0.1,0.7-0.3,1.2c-0.6,1.6-0.9,4.5-1,7.2c-0.1,2.8-0.1,5.5-0.3,7.1c0,0.4-0.3,0.9-0.6,1.7c0.2,0.5,0.2,1.3,0.7,1.6
			c2.6-2.7,4.9-5,6.8-7.1s3.7-4.1,5.3-6.4c0.2-0.3,0.4-0.5,0.7-0.8c0.9-0.9,2-2,2-3.4c0-0.7-0.1-1.5-0.3-2.2
			c-0.2-0.7-0.3-1.3-0.3-1.9c0-1.8,1.9-5.1,3.3-5.1c0.5,0,2.1,1.6,2.1,2.5c0,1.5-0.9,3.6-2.5,5.8c0.7,3.2,2.2,7.8,5.8,7.8
			c1.2,0,2.9-1.4,3.7-2.2c0.1-0.2,0.3-0.2,0.3-0.2c0.3,0,0.5,0.3,0.5,0.5C93.6,71.7,93.6,71.8,93.5,72z"/>
		<path class="st2" d="M117.7,72.4c-1.6,1.8-3,3.2-5,4.7c-3.9,2.8-8.2,5.9-13,5.9c-1.6,0-3.2-0.3-4.3-1.3c-0.9-0.9-1.6-1.4-2.1-3
			c-0.3-1.4-0.9-2.6-0.9-4.6c0-2.2,0.7-4.8,1.8-7.3c0.4-0.9,1.3-2.3,1.8-3.2c0.7-1,0.9-1.5,1.8-2.5c2.4-2.7,6.1-4.6,8.6-4.6
			c2.8,0,4.7,1.5,4.7,3.4c0,0.5-0.2,1.2-0.3,1.6c-0.1,0.4-0.2,0.7-0.6,1.2c-1,1.3-3.1,2.9-4.9,4c-1.6,1-3,2-4.5,2.7
			c-0.9,0.4-2.2,0.9-3.2,1.2c-0.3,0.2-0.5,0.3-0.6,0.9c-0.1,0.5-0.3,1.6-0.3,1.9c0,1.3,0.2,2.2,0.4,3.2l0.1,0.2v0.9l0.4,0.4
			c0.9,1.8,2.2,2.7,4.6,2.7c3.8,0,6.8-2.3,9.5-4.4c2.1-1.6,4-3.4,5.7-5.3l0.2-0.2c0.3,0,0.7,0.6,0.7,0.6S118.1,72,117.7,72.4z
			 M106.4,57.5c-1.3,0-1.9,0.8-2.8,1.3c-0.5,0.3-1.9,1.8-2.3,2.2c-0.7,0.7-1,1.1-1.6,2.2c-1,2.3-1.6,3.3-2.2,6.8
			c1.9-0.9,2.5-1.1,3.5-1.6s1.9-1,3-1.7c2.2-1.4,5.2-5,5.2-7.6C109.2,57.7,108.2,57.5,106.4,57.5z"/>
		<path class="st2" d="M152.1,71c-2.3,3.3-9.6,11.1-11.4,12.6c-2.8,2.2-4.4,3.2-7.2,3.2c-4,0-5.8-1.8-5.8-5.6c0-2.7,1.2-4.7,2.7-7.1
			c0.6-0.9,1.6-2.8,2.1-3.8c0.4-1,0.8-2.2,0.8-3.7c0-0.8-1.8-1.5-3.9-1.7c-0.8-0.1-1.6-0.3-2.2-0.3c-0.3-0.1-1.5-0.6-1.8-1.5
			c-0.7,2-1.7,3-3.2,4.7c-2.2,2.6-3.4,4.1-5.3,5.7c-0.2,0.1-0.3,0.2-0.5,0.2c-0.4,0-0.6-0.3-0.6-0.4s0-0.2,0.2-0.3
			c1.7-2,3.4-3.9,5.1-5.8c0.9-1.1,1.3-1.6,1.5-2.2c0.1-0.3,0.4-1.1,0.7-1.9c0.1-0.3,0.2-1,0.2-1.5c0-1-0.2-1.6-0.4-2.3
			c-0.2-0.5-0.4-1-0.4-1.6c0-1.2,1.3-2.2,2.8-2.2c1.6,0,1.7,0.5,1.7,1.8v1.3c0,1.9,0.4,1.7,1.2,3.2c0.5,1,2.4,1.2,3.4,1.5
			c0.9,0.3,1.9,0.3,3.3,0.4c1.7,0.1,3.4,0,3.4,1.4c0,2.8-1.4,5.2-3,7.6c-0.8,1.2-2.1,3.3-2.8,4.4s-1.1,2.3-1.2,3.8
			c0.6,2.4,0.3,4.3,3.4,4.3c2.1,0,5.2-2.9,6.7-4.1c1.6-1.2,1.5-1,3.3-2.9c2-2.2,3.8-4.2,6.1-7.1c0.3-0.3,0.5-0.7,0.8-0.7
			c0.5,0,0.7,0.3,0.7,0.4C152.3,70.6,152.3,70.8,152.1,71z"/>
		<path class="st2" d="M194.5,70.2c-2.3,2.8-4.7,5.5-7.3,8.1c-2.3,2.3-5.2,5.4-7.9,7.8c-2.7,2.3-3.4,2.7-4.7,5.9l-1.4,3.1
			c-2,4.5-6.2,8.5-11.2,12.2c-2.1,1.6-4.6,2.8-6.8,2.8c-1.7,0-2.8-1.1-3.5-2.7c-0.3-0.7-0.7-2.6-0.7-3.3c0-3.8,3.9-5,7.4-7.3
			c3-2.1,10-3.7,12.7-6.1c2.4-5.8,4.1-10.9,6.2-16.8c0.3-0.8,0.6-1.5,0.9-2.2c0.3-0.8,0.6-1.7,0.6-2.7c0-0.3,0.1-0.9,0.1-1.4
			c0-1.3-0.1-2.8-0.6-2.9c-0.9,1-2.8,3.4-3,3.9c-0.3,0.3-0.3,0.7-0.5,0.9c-0.3,0.4-0.6,0.7-1.7,1.6c-3.7,3.2-4.3,6.1-10.8,9.9
			c-1,0.6-4.1,1.2-4.8,1.2c-1.6,0-2.1-3-2.1-4.4s0.4-3.1,0.9-5s1-3.9,1.7-7.8c-2.6,2.5-3.4,3.5-4.3,4.5c-0.9,0.9-1.7,1.8-2.5,2.5
			c-0.9,0.8-1.5,1.1-1.9,1.1H149c0-0.2,0.2-0.5,0.7-1c1.2-1.2,2.1-2.6,3.4-3.7c0.2-0.2,7.7-10,7.9-10.8c0.3-0.9,1-1.2,1.6-1.2
			c0.9,0,1.6,0.7,1.6,1.5c0,0.2-0.7,3.3-0.8,3.4c-1.2,2.3-1.8,4.2-2.3,6.1s-0.9,3.9-1.6,6.3c-0.2,0.4-0.3,1.5-0.3,2.5
			c0,1.6,0.6,3,2.2,3c0.9,0,2-0.7,3.3-1.7c2.3-1.8,4.2-4.3,6.8-6.8c2.1-2.2,4.4-4.7,6.1-6.9c0.9-1,1.6-2.2,2.3-2.8
			c0.5-0.5,0.9-1,1.1-1.1c0.4-0.2,0.9-0.3,1.1-0.3c1.5,0,2.6,1,2.6,2c0,0.3-0.1,1-0.2,1.6c-0.1,0.6-0.3,1.2-0.3,1.6
			c-0.3,1.1-0.9,2.9-1.6,4.7c-0.7,1.8-1.4,3.7-1.8,4.9c-1.1,3.2-2.1,6.1-4.1,11.5c3.5-2.7,4.9-3.9,6.1-5.1c1.2-1.2,2.4-2.3,3.4-3.4
			c2.4-2.5,4.6-5,6.9-7.6c0.2-0.3,0.4-0.3,0.7-0.3c0.6,0,0.7,0.3,0.7,0.3S194.6,70.1,194.5,70.2z M158.8,97.6
			c-0.8,0.5-1.9,1.2-2.9,2c-1.1,0.9-2.5,3-2.5,4.3c0,0.8,0.2,1.6,0.4,2.8c0.3,1.2,0.9,2.2,2,2.2c2.1,0,9.8-3.5,14.2-16.1
			C166.4,94.7,160.4,96.6,158.8,97.6z"/>
		<path class="st2" d="M219.2,74.3c-0.3,0-0.4-0.3-0.4-0.3c0-0.1,0.1-0.2,0.2-0.3c1.2-1.5,3.4-4.3,5-5.9c1.4-6.3,3.4-11.9,4.9-17.2
			c2.2-7.6,5.9-13.3,9.8-18.1c1.1-1.4,2.1-2.4,3.4-2.9l0.9-0.4c0.2-0.1,0.3-0.2,0.5-0.2c1.6,0,2.4,1.6,2.4,4.5
			c0,1.6-0.5,3.6-1.3,5.8s-1.3,4.4-2.6,6.8c-1,1.8-2.8,3.9-4,5.7c-3.4,5.2-6.4,9.2-9.2,12.2c-0.3,1.6-1,4.8-1.2,7.8s-1.2,6.6-1.2,9
			c0,2.8,0.3,4.7,1.5,4.7c0.4,0,0.9-0.4,1.4-0.5s1.7-0.8,2.2-1c0.9-0.4,1.7-1.4,2.8-2.3c2.5-2.3,4.9-5,7.2-7.8
			c1.5-1.7,2.6-3,4.6-5.2c0.2-0.3,0.3-0.3,0.4-0.3c0.3,0,0.6,0.3,0.6,0.5c0,0.1-0.1,0.3-0.2,0.3c-1.4,1.9-2.9,3.4-4.4,5.1
			c-1.5,1.6-2.8,3.6-4.6,5.6c-0.9,1-2,1.6-2.9,2.6c-0.8,0.8-1.6,1.5-2.4,2.1c-1.4,1-2.4,2.2-3.6,2.6c-0.9,0.3-2.2,0.4-3.1,0.4
			c-2.7,0-3.9-1.9-3.9-7.4c0-2.2,0.3-6.1,1.6-10.5c-1.2,1.8-2.9,3.5-3.8,4.5C219.6,74.2,219.4,74.3,219.2,74.3z M243.1,30.7
			c-0.3,0-0.7,0-1,0.1c-2.1,0.3-5.8,9.1-8.9,17.9c-2,5.5-2.9,10.1-3.8,13.4c2.2-2.5,3.9-5.8,6.4-9.1s3.6-5.2,5.2-8.1
			c2.4-4.7,4.1-8.9,4.1-11.5C245,31.3,244.6,30.7,243.1,30.7z"/>
		<path class="st2" d="M279.4,71.9c-1,1.1-2.2,2.7-3,3.5c-2.1,2.2-3.8,3.8-5.8,5.3c-1.3,0.9-4,2.6-5.4,2.6c-0.8,0-2.6-0.3-2.9-0.8
			c-1.3-1.8-1.3-2.2-1.3-4.5c0-0.9,0.6-2.8,1-3.8c0.3-0.9,0.5-1.6,1.1-3.8c0.2-0.6,0.1-0.8,0.2-1.3c-0.3,0.2-0.6,0.4-1,0.9
			c-3.5,4.1-5.5,6.4-7.8,8.3c-1.1,0.9-2.2,2.1-3.4,3.1c-1.1,0.9-1.9,1.5-3.2,2c-0.7,0.3-2.2,0.8-3.3,0.8c-0.8,0-0.9-0.4-1.3-1
			c-0.3-0.6-1.4-0.9-1.6-1.7c-0.3-1.2-0.3-2.5-0.3-3.4c0-5.4,3.4-10.6,7.3-14.2c0.5-0.5,1.4-1,2-1.5c0.5-0.4,0.9-0.8,1.4-1.1
			c1.9-1.1,3.9-1.7,5.8-1.7c2.7,0,4.7,1,7.3,5.1c1-1.2,1.5-1.7,1.8-2.2c0.4-0.5,0.9-1.1,1-1.4s0.3-0.3,0.5-0.3h0.7
			c0.5,0,0.9,0.1,0.9,0.4c0,1.4-0.3,2.2-0.6,3.1c-0.5,1.6-1.4,3.4-2.1,5.2c-0.8,1.9-2.3,5.8-2.3,7.8c0,3.3,0.3,3.4,2.7,3.4
			c0.9,0,3.6-1.9,4.4-2.6c2.2-1.9,2.2-2.2,4-4.1c0.7-0.8,2.1-2.2,2.8-3.2c0.1-0.2,0.2-0.2,0.3-0.2c0.2,0,0.5,0.3,0.5,0.6
			C279.6,71.6,279.5,71.7,279.4,71.9z M264,65.5c0-0.3-0.1-0.5-0.2-0.8c-1.5-2.5-3-3.3-5.1-3.3c-1.7,0-3.4,1-5,2.2
			c-0.3,0.3-0.9,0.4-1.3,0.8c-0.3,0.3-0.4,0.8-0.8,1.1c-3.1,3.4-6.2,7.8-6.2,12.2c0,2,0.5,3.7,2.1,3.7c1.3,0,3.2-1.1,6-3.6
			c2-1.8,3.7-3.6,5.3-5.5c1.4-1.7,2.9-3.6,4.6-5.6C263.8,66.3,264,66,264,65.5z"/>
		<path class="st2" d="M277.6,73.9c-0.2,0-0.5-0.3-0.5-0.6c0-0.3,0.1-0.4,0.2-0.5c3.7-4.1,7.5-9.2,10.3-14.4c0.3-0.5,0.3-1,0.3-1.6
			c0.3-0.8,0.8-1,1.4-1c0.7,0,1.3,0.3,1.6,1c0.7,0.8,1.9,2.2,2.2,2.8c1.8,3.4,2.9,7.9,2.9,12.2c0,2.5-2.7,9.3-6.3,13.2
			c1.7-0.5,7.5-2.5,10.7-4.7c3.5-2.5,7.5-6.5,10.5-9.9c0.1-0.1,0.4-0.3,0.5-0.3c0.2,0,0.5,0,0.5,0.3c-0.2,0.4-1.1,1.6-1.5,2
			c-3.1,3.4-5.9,6.1-9,8.7c-2.7,2.2-8.5,4.8-11.5,4.8c-1,0-2.8,0.4-4.6,0.4c-1.8,0-3.5-1.4-4.6-3c-0.6-0.9-2.5-1.2-2.5-2.5
			c0-0.8,1-1.7,2-1.7c0.4,0,0.7,0.1,0.9,0.5c0.1,0.1,0.2,0.6,0.3,1.1c0.2,0.5,0.3,1.2,0.7,1.7c0.7,1.1,1.8,2.4,3.2,2.4
			c3,0,4.6-3.9,5.4-6.4s0.8-4.2,0.8-6.8c0-3.5-1-7.7-3.3-10.8c-3.3,4.7-6.5,8.6-10.4,12.7C277.8,73.8,277.7,73.9,277.6,73.9z"/>
		<path class="st2" d="M333.2,71c-1.8,2.1-3.7,4.4-5.4,6.1c-2.4,2.4-5.9,6.5-9.3,7.4c-0.4,0.1-0.9,0.2-1.4,0.2
			c-3.8,0-7.7-3.4-7.7-7.1c0-3.2,0-5,1.2-7.8c2.3-5.2,2.6-6.6,3.9-8.9c-1.4-0.1-2.8-0.1-4.1-0.1l-1.9,0.1c-0.3,0-0.5-0.2-0.5-0.5
			c0-0.5,0.3-0.7,0.9-0.7l1.5,0.1h4.7c1.7-3.6,4.7-10.9,6.1-14.2c0.2-0.5,0.5-1.9,1-3.1c0.3-0.9,0.5-1.8,1-1.8
			c0.7,0,2.1,1.5,2.1,2.3s-0.5,3.4-0.8,4c-1,2.2-3.9,9.5-5.3,12.6h9.6c0.5,0,0.7,0.3,0.7,0.6s-0.2,0.5-0.5,0.5h-7.7
			c-0.4,0-1.3,0-2.7,0.1c-1.8,3.4-2.8,7.3-4.2,10.5c-0.7,1.6-0.8,2.7-0.8,4v2.2c0,4.7,2.5,4.9,4.4,4.9c3.5,0,6.6-4.1,8.9-6.4
			c2.1-2.2,3.4-3.6,5.2-5.6c0.2-0.2,0.3-0.3,0.5-0.3c0.5,0,0.7,0.3,0.7,0.3C333.4,70.9,333.3,70.9,333.2,71z"/>
		<path class="st2" d="M392.8,72.1c-0.9,1-1.5,1.9-2.3,2.8c-1.1,1.2-3.6,2.3-5.9,2.3c-0.5,0-2-0.3-2.9-0.7c-0.7,3.4-3,7.3-6.5,9.4
			c-1.8,1.1-2,2-4,2c-1.5,0-3.8-0.7-4.8-1.2c-0.7-0.3-0.9-0.9-1.4-1.5c-0.6-0.5-1.4-1-1.8-1.7c-1-2.1-1.5-4.7-1.5-7.4
			c0-0.9,0.1-1.9,0.4-5l-2.6,2.6c-0.1,0.1-0.3,0.2-0.3,0.2c-0.1,0-0.3-0.1-0.3-0.4s0.4-0.9,0.6-1.1c0.4-0.5,2.8-2.9,3.2-3.5
			c2.3-10.6,7.8-21.1,14-29.7c1.9-2.7,4.6-4.5,7.4-4.5c1.5,0,2.4,1.1,2.4,3.2c0,1,0,2.6-0.3,3.6c-0.6,2.1-1.8,3.4-3.5,5.6
			c-1.7,2.2-3.3,5.2-5.2,7.4c-3.6,4.3-7.7,8.4-10.1,11.1c-0.9,3.2-1.4,6.3-1.4,9.4l-0.3,1.8l0.3,1.9c0.3,3.7,1.3,7.5,5.2,7.5
			c1.8,0,4-1.9,6-3.7c2-1.7,2.6-3.8,3.2-6.3c-1.3-0.4-1.8-1.3-2.6-3.1c-0.8-1.6-0.8-3.4-0.8-4.6c0-1.1,0-2.3,0.2-3.4
			c0.3-1.6,1-2.5,1.7-2.5s1.4,0.7,2.1,2c0.7,1.2,0.7,3.3,0.7,4.8c0,0.3-0.2,1.8-0.2,3.1c0,0.7,0.1,1.8,0.3,2.3
			c1,0.9,2.7,1.4,3.3,1.4c1.9,0,2.8-0.5,4.5-2.2c1-1,1.9-2.2,2.4-2.8c0.3-0.3,0.4-0.4,0.5-0.4c0.3,0,0.4,0,0.4,0.6
			C393.3,71.5,393,71.9,392.8,72.1z M383.8,35.7c-1.4,0-2.4,1-3.1,2s-1.4,2.2-2,3.1c-1.9,2.7-3.4,5.3-5,8.5c-1,2.3-1.5,3.4-2.7,6.4
			c-0.3,0.9-1,2.2-1.4,3.1c-0.4,1-1.2,3.3-1.6,4.5c0.4-0.5,0.9-1,1.3-1.4c4.4-4.7,6.6-7.7,9.6-11.5c3.2-4.1,6-8.9,6-12.7
			C384.9,36.9,384.9,35.7,383.8,35.7z"/>
		<path class="st2" d="M419,72.1c-4.1,5-8.4,8.6-13.3,12.1c-1,0.8-3.4,1.2-4,1.2c-3.9,0-4.1-3-4.1-4.1c0,0,0.1-0.3,0.1-0.4
			c0.5-2.1,0.9-4.6,1.5-6.8c1.2-4.3,3-8.3,3.8-11.4c0.1-0.5,0.1-0.6,0.1-1c-0.3,0-0.5,0.2-0.9,0.4c-2.5,2-4.2,3.8-4.9,4.6
			c-1.9,2.2-3.9,4.7-5,5.9c-0.1,0.1-0.2,0.2-0.3,0.2c-0.4,0-0.8-0.4-0.8-0.6c0,0,0-0.1,0.2-0.3c1.8-2.2,3.4-3.9,5-5.8
			c3.1-3.5,6.9-6.5,8.4-6.5c1.7,0,2.3,0.3,2.3,2.3c0,0.4-0.6,2.2-1.1,3.8s-1.1,3.4-1.7,5.3l-0.3,2.2c-1.1,3.5-2.2,6.3-2.2,8v0.9
			c0,0.7,0.2,1.1,1.9,1.1c0.7,0,2.8-0.9,3.4-1.4c4.6-3.4,9.4-8.4,11.9-11.3l0.2-0.1c0.3,0,0.3,0.8,0.3,0.8
			C419.3,71.6,419.2,71.9,419,72.1z M410,50c-1.7,0-1.9-3-1.9-4.4c0-1,0.3-1.4,1.3-1.4c0.3,0,0.7,0.2,1.1,0.7c0.4,0.6,1,1,1.5,1.5
			c0.3,0.4,0.4,0.7,0.4,1C412.4,48.3,410.9,50,410,50z"/>
		<path class="st2" d="M441.5,71c-1.8,2.1-3.7,4.4-5.4,6.1c-2.4,2.4-5.9,6.5-9.3,7.4c-0.4,0.1-0.9,0.2-1.4,0.2
			c-3.8,0-7.7-3.4-7.7-7.1c0-3.2,0-5,1.2-7.8c2.3-5.2,2.6-6.6,3.9-8.9c-1.4-0.1-2.8-0.1-4.1-0.1l-1.9,0.1c-0.3,0-0.5-0.2-0.5-0.5
			c0-0.5,0.3-0.7,0.9-0.7l1.5,0.1h4.7c1.7-3.6,4.7-10.9,6.1-14.2c0.2-0.5,0.5-1.9,1-3.1c0.3-0.9,0.5-1.8,1-1.8
			c0.7,0,2.1,1.5,2.1,2.3s-0.5,3.4-0.8,4c-1,2.2-3.9,9.5-5.3,12.6h9.6c0.5,0,0.7,0.3,0.7,0.6s-0.2,0.5-0.5,0.5h-7.7
			c-0.4,0-1.3,0-2.7,0.1c-1.8,3.4-2.8,7.3-4.2,10.5c-0.7,1.6-0.8,2.7-0.8,4v2.2c0,4.7,2.5,4.9,4.4,4.9c3.5,0,6.6-4.1,8.9-6.4
			c2.1-2.2,3.4-3.6,5.2-5.6c0.2-0.2,0.3-0.3,0.5-0.3c0.5,0,0.7,0.3,0.7,0.3C441.6,70.9,441.5,70.9,441.5,71z"/>
		<path class="st2" d="M465,72.4c-1.5,1.8-3,3.2-5,4.7c-3.9,2.8-8.2,5.9-13,5.9c-1.6,0-3.2-0.3-4.3-1.3c-0.9-0.9-1.6-1.4-2.1-3
			c-0.3-1.4-0.9-2.6-0.9-4.6c0-2.2,0.7-4.8,1.8-7.3c0.4-0.9,1.3-2.3,1.8-3.2c0.7-1,1-1.5,1.8-2.5c2.4-2.7,6.1-4.6,8.6-4.6
			c2.8,0,4.6,1.5,4.6,3.4c0,0.5-0.2,1.2-0.3,1.6c-0.1,0.4-0.2,0.7-0.6,1.2c-1,1.3-3.1,2.9-4.9,4c-1.6,1-3,2-4.5,2.7
			c-1,0.4-2.2,0.9-3.2,1.2c-0.3,0.2-0.5,0.3-0.6,0.9c-0.1,0.5-0.3,1.6-0.3,1.9c0,1.3,0.2,2.2,0.4,3.2l0.1,0.2v0.9l0.4,0.4
			c0.9,1.8,2.2,2.7,4.6,2.7c3.8,0,6.8-2.3,9.5-4.4c2.1-1.6,4-3.4,5.7-5.3l0.2-0.2c0.3,0,0.7,0.6,0.7,0.6S465.4,72,465,72.4z
			 M453.7,57.5c-1.3,0-1.9,0.8-2.8,1.3c-0.5,0.3-1.9,1.8-2.3,2.2c-0.7,0.7-1,1.1-1.5,2.2c-1,2.3-1.6,3.3-2.2,6.8
			c1.9-0.9,2.5-1.1,3.5-1.6s1.9-1,3-1.7c2.1-1.4,5.2-5,5.2-7.6C456.5,57.7,455.5,57.5,453.7,57.5z"/>
	</g>
	<g>
		<path d="M394.7,129.3c0-1,0-1.9-0.1-2.7h1.4l0.1,1.7h0.1c0.4-1.2,1.4-1.9,2.4-1.9c0.2,0,0.3,0,0.5,0.1v1.5c-0.2,0-0.3-0.1-0.5-0.1
			c-1.1,0-1.9,0.8-2.1,2c0,0.2-0.1,0.5-0.1,0.7v4.6h-1.6L394.7,129.3L394.7,129.3z"/>
		<path d="M401.3,131.2c0,2.1,1.4,3,3,3c1.1,0,1.8-0.2,2.4-0.5l0.3,1.1c-0.6,0.3-1.5,0.5-2.9,0.5c-2.7,0-4.3-1.8-4.3-4.4
			c0-2.6,1.5-4.7,4.1-4.7c2.8,0,3.6,2.5,3.6,4.1c0,0.3,0,0.6-0.1,0.7h-6.1V131.2z M405.9,130.1c0-1-0.4-2.6-2.2-2.6
			c-1.6,0-2.3,1.5-2.4,2.6H405.9z"/>
		<path d="M415.7,135c-0.4,0.2-1.3,0.5-2.5,0.5c-2.6,0-4.3-1.8-4.3-4.4c0-2.7,1.8-4.6,4.7-4.6c0.9,0,1.8,0.2,2.2,0.5l-0.4,1.2
			c-0.4-0.2-1-0.4-1.8-0.4c-2,0-3.1,1.5-3.1,3.3c0,2,1.3,3.3,3,3.3c0.9,0,1.5-0.2,1.9-0.4L415.7,135z"/>
		<path d="M419.3,124.1c0,0.5-0.4,1-1,1s-1-0.4-1-1s0.4-1,1-1S419.3,123.6,419.3,124.1z M417.5,135.3v-8.7h1.6v8.7H417.5z"/>
		<path d="M421.7,129.4c0-1.1,0-2-0.1-2.8h1.4l0.1,1.5l0,0c0.6-1.1,1.7-1.7,3.1-1.7c2.1,0,3.7,1.8,3.7,4.4c0,3.1-1.9,4.7-4,4.7
			c-1.2,0-2.2-0.5-2.7-1.4l0,0v4.7h-1.6v-9.4H421.7z M423.3,131.7c0,0.2,0,0.5,0.1,0.6c0.3,1.1,1.2,1.9,2.4,1.9
			c1.7,0,2.6-1.4,2.6-3.4c0-1.7-0.9-3.2-2.6-3.2c-1.1,0-2.1,0.8-2.4,2c-0.1,0.2-0.1,0.4-0.1,0.6V131.7z"/>
		<path d="M432.8,131.2c0,2.1,1.4,3,3,3c1.1,0,1.8-0.2,2.4-0.5l0.3,1.1c-0.6,0.3-1.5,0.5-2.9,0.5c-2.7,0-4.3-1.8-4.3-4.4
			c0-2.6,1.5-4.7,4.1-4.7c2.8,0,3.6,2.5,3.6,4.1c0,0.3,0,0.6-0.1,0.7h-6.1V131.2z M437.5,130.1c0-1-0.4-2.6-2.2-2.6
			c-1.6,0-2.3,1.5-2.4,2.6H437.5z"/>
		<path d="M440.8,133.7c0.5,0.3,1.3,0.6,2.1,0.6c1.2,0,1.7-0.6,1.7-1.3c0-0.8-0.5-1.2-1.6-1.6c-1.6-0.6-2.3-1.4-2.3-2.5
			c0-1.4,1.1-2.6,3-2.6c0.9,0,1.7,0.3,2.1,0.5l-0.4,1.2c-0.3-0.2-1-0.5-1.8-0.5c-0.9,0-1.5,0.5-1.5,1.2c0,0.7,0.5,1,1.7,1.5
			c1.5,0.6,2.3,1.3,2.3,2.6c0,1.5-1.2,2.6-3.3,2.6c-1,0-1.8-0.2-2.4-0.6L440.8,133.7z"/>
		<path d="M451.7,133.7c0.5,0.3,1.3,0.6,2.1,0.6c1.2,0,1.7-0.6,1.7-1.3c0-0.8-0.5-1.2-1.6-1.6c-1.6-0.6-2.3-1.4-2.3-2.5
			c0-1.4,1.1-2.6,3-2.6c0.9,0,1.7,0.3,2.1,0.5l-0.4,1.2c-0.3-0.2-1-0.5-1.8-0.5c-0.9,0-1.5,0.5-1.5,1.2c0,0.7,0.5,1,1.7,1.5
			c1.5,0.6,2.3,1.3,2.3,2.6c0,1.5-1.2,2.6-3.3,2.6c-1,0-1.8-0.2-2.4-0.6L451.7,133.7z"/>
		<path d="M466.9,130.9c0,3.2-2.2,4.6-4.3,4.6c-2.4,0-4.2-1.7-4.2-4.5c0-2.9,1.9-4.6,4.3-4.6C465.2,126.4,466.9,128.2,466.9,130.9z
			 M460,130.9c0,1.9,1.1,3.3,2.6,3.3s2.6-1.4,2.6-3.4c0-1.5-0.7-3.3-2.6-3.3C460.8,127.6,460,129.3,460,130.9z"/>
		<path d="M480.3,122.5V133c0,0.8,0,1.7,0.1,2.3H479l-0.1-1.5l0,0c-0.5,1-1.5,1.7-3,1.7c-2.1,0-3.7-1.8-3.7-4.4
			c0-2.9,1.8-4.7,3.9-4.7c1.3,0,2.2,0.6,2.6,1.3l0,0v-5.2L480.3,122.5L480.3,122.5z M478.7,130.1c0-0.2,0-0.5-0.1-0.7
			c-0.2-1-1.1-1.8-2.3-1.8c-1.6,0-2.6,1.4-2.6,3.4c0,1.8,0.9,3.2,2.6,3.2c1.1,0,2-0.7,2.3-1.9c0.1-0.2,0.1-0.4,0.1-0.7V130.1z"/>
		<path d="M483.8,131.2c0,2.1,1.4,3,3,3c1.1,0,1.8-0.2,2.4-0.5l0.3,1.1c-0.6,0.3-1.5,0.5-2.9,0.5c-2.7,0-4.3-1.8-4.3-4.4
			c0-2.6,1.5-4.7,4.1-4.7c2.8,0,3.6,2.5,3.6,4.1c0,0.3,0,0.6-0.1,0.7h-6.1V131.2z M488.4,130.1c0-1-0.4-2.6-2.2-2.6
			c-1.6,0-2.3,1.5-2.4,2.6H488.4z"/>
		<path d="M491.9,122.5h1.6v12.8h-1.6V122.5z"/>
		<path d="M497.9,124.1c0,0.5-0.4,1-1,1s-1-0.4-1-1s0.4-1,1-1S497.9,123.6,497.9,124.1z M496.2,135.3v-8.7h1.6v8.7H496.2z"/>
		<path d="M506.6,135c-0.4,0.2-1.3,0.5-2.5,0.5c-2.6,0-4.3-1.8-4.3-4.4c0-2.7,1.8-4.6,4.7-4.6c0.9,0,1.8,0.2,2.2,0.5l-0.4,1.2
			c-0.4-0.2-1-0.4-1.8-0.4c-2,0-3.1,1.5-3.1,3.3c0,2,1.3,3.3,3,3.3c0.9,0,1.5-0.2,1.9-0.4L506.6,135z"/>
		<path d="M510.2,124.1c0,0.5-0.4,1-1,1s-1-0.4-1-1s0.4-1,1-1C509.8,123.1,510.2,123.6,510.2,124.1z M508.4,135.3v-8.7h1.6v8.7
			H508.4z"/>
		<path d="M520.5,130.9c0,3.2-2.2,4.6-4.3,4.6c-2.4,0-4.2-1.7-4.2-4.5c0-2.9,1.9-4.6,4.3-4.6C518.8,126.4,520.5,128.2,520.5,130.9z
			 M513.6,130.9c0,1.9,1.1,3.3,2.6,3.3s2.6-1.4,2.6-3.4c0-1.5-0.7-3.3-2.6-3.3C514.4,127.6,513.6,129.3,513.6,130.9z"/>
		<path d="M529.8,132.9c0,0.9,0,1.7,0.1,2.4h-1.4l-0.1-1.4l0,0c-0.4,0.7-1.3,1.6-2.9,1.6c-1.4,0-3-0.8-3-3.8v-5.1h1.6v4.8
			c0,1.7,0.5,2.8,1.9,2.8c1.1,0,1.8-0.7,2.1-1.4c0.1-0.2,0.1-0.5,0.1-0.8v-5.3h1.6L529.8,132.9L529.8,132.9z"/>
		<path d="M532.2,133.7c0.5,0.3,1.3,0.6,2.1,0.6c1.2,0,1.7-0.6,1.7-1.3c0-0.8-0.5-1.2-1.6-1.6c-1.6-0.6-2.3-1.4-2.3-2.5
			c0-1.4,1.1-2.6,3-2.6c0.9,0,1.7,0.3,2.1,0.5l-0.4,1.2c-0.3-0.2-1-0.5-1.8-0.5c-0.9,0-1.5,0.5-1.5,1.2c0,0.7,0.5,1,1.7,1.5
			c1.5,0.6,2.3,1.3,2.3,2.6c0,1.5-1.2,2.6-3.3,2.6c-1,0-1.8-0.2-2.4-0.6L532.2,133.7z"/>
		<path d="M544,126.6l1.9,5.1c0.2,0.6,0.4,1.3,0.6,1.8l0,0c0.2-0.5,0.3-1.2,0.6-1.8l1.7-5.1h1.7l-2.4,6.2c-1.1,3-1.9,4.5-3,5.5
			c-0.8,0.7-1.5,1-1.9,1l-0.4-1.3c0.4-0.1,0.9-0.4,1.4-0.8c0.4-0.3,1-1,1.3-1.8c0.1-0.2,0.1-0.3,0.1-0.4c0-0.1,0-0.2-0.1-0.4l-3.2-8
			C542.3,126.6,544,126.6,544,126.6z"/>
		<path d="M559.6,130.9c0,3.2-2.2,4.6-4.3,4.6c-2.4,0-4.2-1.7-4.2-4.5c0-2.9,1.9-4.6,4.3-4.6C557.9,126.4,559.6,128.2,559.6,130.9z
			 M552.7,130.9c0,1.9,1.1,3.3,2.6,3.3s2.6-1.4,2.6-3.4c0-1.5-0.7-3.3-2.6-3.3C553.5,127.6,552.7,129.3,552.7,130.9z"/>
		<path d="M568.9,132.9c0,0.9,0,1.7,0.1,2.4h-1.4l-0.1-1.4l0,0c-0.4,0.7-1.3,1.6-2.9,1.6c-1.4,0-3-0.8-3-3.8v-5.1h1.6v4.8
			c0,1.7,0.5,2.8,1.9,2.8c1.1,0,1.8-0.7,2.1-1.4c0.1-0.2,0.1-0.5,0.1-0.8v-5.3h1.6L568.9,132.9L568.9,132.9z"/>
		<path d="M573.1,122.9c-0.4,1.5-1.2,3.4-1.7,4.3l-1,0.1c0.4-1.1,0.9-2.9,1.1-4.2L573.1,122.9z"/>
		<path d="M574.8,122.5h1.6v12.8h-1.6V122.5z"/>
		<path d="M579.1,122.5h1.6v12.8h-1.6V122.5z"/>
		<path d="M588,131.2c0,2.1,1.4,3,3,3c1.1,0,1.8-0.2,2.4-0.5l0.3,1.1c-0.6,0.3-1.5,0.5-2.9,0.5c-2.7,0-4.3-1.8-4.3-4.4
			c0-2.6,1.5-4.7,4.1-4.7c2.8,0,3.6,2.5,3.6,4.1c0,0.3,0,0.6-0.1,0.7H588V131.2z M592.7,130.1c0-1-0.4-2.6-2.2-2.6
			c-1.6,0-2.3,1.5-2.4,2.6H592.7z"/>
		<path d="M596.1,128.9c0-0.9,0-1.6-0.1-2.4h1.4l0.1,1.4l0,0c0.4-0.8,1.4-1.6,2.9-1.6c1.2,0,3.1,0.7,3.1,3.7v5.2H602v-5
			c0-1.4-0.5-2.6-2-2.6c-1,0-1.9,0.7-2.1,1.6c-0.1,0.2-0.1,0.5-0.1,0.7v5.2h-1.6v-6.2H596.1z"/>
		<path d="M604,137.8c0.7-0.1,1.4-0.3,1.7-0.7c0.4-0.5,0.6-1.2,0.6-3.3v-7.3h1.6v7.9c0,1.7-0.3,2.8-1,3.6c-0.7,0.7-1.9,1-2.7,1
			L604,137.8z M608.1,124.1c0,0.5-0.4,1-1,1s-1-0.5-1-1c0-0.6,0.4-1,1-1C607.7,123.1,608.1,123.6,608.1,124.1z"/>
		<path d="M618.4,130.9c0,3.2-2.2,4.6-4.3,4.6c-2.4,0-4.2-1.7-4.2-4.5c0-2.9,1.9-4.6,4.3-4.6C616.7,126.4,618.4,128.2,618.4,130.9z
			 M611.5,130.9c0,1.9,1.1,3.3,2.6,3.3s2.6-1.4,2.6-3.4c0-1.5-0.7-3.3-2.6-3.3C612.3,127.6,611.5,129.3,611.5,130.9z"/>
		<path d="M620.8,126.6l1.9,5.1c0.2,0.6,0.4,1.3,0.6,1.8l0,0c0.2-0.5,0.3-1.2,0.6-1.8l1.7-5.1h1.7l-2.4,6.2c-1.1,3-1.9,4.5-3,5.5
			c-0.8,0.7-1.5,1-1.9,1l-0.4-1.3c0.4-0.1,0.9-0.4,1.4-0.8c0.4-0.3,1-1,1.3-1.8c0.1-0.2,0.1-0.3,0.1-0.4c0-0.1,0-0.2-0.1-0.4l-3.2-8
			C619.1,126.6,620.8,126.6,620.8,126.6z"/>
		<path d="M633.4,131.2c0,2.1,1.4,3,3,3c1.1,0,1.8-0.2,2.4-0.5l0.3,1.1c-0.6,0.3-1.5,0.5-2.9,0.5c-2.7,0-4.3-1.8-4.3-4.4
			c0-2.6,1.5-4.7,4.1-4.7c2.8,0,3.6,2.5,3.6,4.1c0,0.3,0,0.6-0.1,0.7h-6.1V131.2z M638.1,130.1c0-1-0.4-2.6-2.2-2.6
			c-1.6,0-2.3,1.5-2.4,2.6H638.1z"/>
		<path d="M642.2,126.6l1.7,4.9c0.3,0.8,0.5,1.5,0.7,2.2h0.1c0.2-0.7,0.5-1.4,0.7-2.2l1.7-4.9h1.7l-3.4,8.7h-1.5l-3.3-8.7
			C640.6,126.6,642.2,126.6,642.2,126.6z"/>
		<path d="M650.9,131.2c0,2.1,1.4,3,3,3c1.1,0,1.8-0.2,2.4-0.5l0.3,1.1c-0.6,0.3-1.5,0.5-2.9,0.5c-2.7,0-4.3-1.8-4.3-4.4
			c0-2.6,1.5-4.7,4.1-4.7c2.8,0,3.6,2.5,3.6,4.1c0,0.3,0,0.6-0.1,0.7h-6.1V131.2z M655.6,130.1c0-1-0.4-2.6-2.2-2.6
			c-1.6,0-2.3,1.5-2.4,2.6H655.6z"/>
		<path d="M659.1,129.3c0-1,0-1.9-0.1-2.7h1.4l0.1,1.7h0.1c0.4-1.2,1.4-1.9,2.4-1.9c0.2,0,0.3,0,0.5,0.1v1.5c-0.2,0-0.3-0.1-0.5-0.1
			c-1.1,0-1.9,0.8-2.1,2c0,0.2-0.1,0.5-0.1,0.7v4.6h-1.6v-5.9H659.1z"/>
		<path d="M666,126.6l1.9,5.1c0.2,0.6,0.4,1.3,0.6,1.8l0,0c0.2-0.5,0.3-1.2,0.6-1.8l1.7-5.1h1.7l-2.4,6.2c-1.1,3-1.9,4.5-3,5.5
			c-0.8,0.7-1.5,1-1.9,1l-0.4-1.3c0.4-0.1,0.9-0.4,1.4-0.8c0.4-0.3,1-1,1.3-1.8c0.1-0.2,0.1-0.3,0.1-0.4c0-0.1,0-0.2-0.1-0.4l-3.2-8
			C664.3,126.6,666,126.6,666,126.6z"/>
		<path d="M677.7,122.5h1.6v12.8h-1.6V122.5z"/>
		<path d="M686.8,135.3l-0.1-1.1h-0.1c-0.5,0.7-1.4,1.3-2.7,1.3c-1.8,0-2.7-1.2-2.7-2.5c0-2.1,1.9-3.3,5.2-3.2v-0.2c0-0.7-0.2-2-2-2
			c-0.8,0-1.7,0.3-2.3,0.6l-0.4-1c0.7-0.5,1.8-0.8,2.9-0.8c2.7,0,3.3,1.8,3.3,3.6v3.3c0,0.8,0,1.5,0.1,2.1h-1.2V135.3z M686.5,130.8
			c-1.7,0-3.7,0.3-3.7,2c0,1,0.7,1.5,1.5,1.5c1.1,0,1.9-0.7,2.1-1.5c0.1-0.2,0.1-0.3,0.1-0.5L686.5,130.8L686.5,130.8z"/>
		<path d="M690.4,133.7c0.5,0.3,1.3,0.6,2.1,0.6c1.2,0,1.7-0.6,1.7-1.3c0-0.8-0.5-1.2-1.6-1.6c-1.6-0.6-2.3-1.4-2.3-2.5
			c0-1.4,1.1-2.6,3-2.6c0.9,0,1.7,0.3,2.1,0.5L695,128c-0.3-0.2-1-0.5-1.8-0.5c-0.9,0-1.5,0.5-1.5,1.2c0,0.7,0.5,1,1.7,1.5
			c1.5,0.6,2.3,1.3,2.3,2.6c0,1.5-1.2,2.6-3.3,2.6c-1,0-1.8-0.2-2.4-0.6L690.4,133.7z"/>
		<path d="M699.7,124.1v2.5h2.3v1.2h-2.3v4.7c0,1.1,0.3,1.7,1.2,1.7c0.4,0,0.7-0.1,0.9-0.1l0.1,1.2c-0.3,0.1-0.8,0.2-1.4,0.2
			c-0.7,0-1.3-0.2-1.7-0.7c-0.5-0.5-0.6-1.2-0.6-2.3v-4.8h-1.4v-1.2h1.4v-2.1L699.7,124.1z"/>
		<path d="M707.5,135.3c0-0.6,0.1-1.5,0.1-2.3v-10.5h1.6v5.5l0,0c0.6-1,1.6-1.6,3-1.6c2.2,0,3.7,1.8,3.7,4.4c0,3.1-2,4.7-3.9,4.7
			c-1.3,0-2.3-0.5-2.9-1.6H709l-0.1,1.4L707.5,135.3L707.5,135.3z M709.1,131.8c0,0.2,0,0.4,0.1,0.6c0.3,1.1,1.2,1.9,2.4,1.9
			c1.7,0,2.6-1.4,2.6-3.3c0-1.7-0.9-3.2-2.6-3.2c-1.1,0-2.1,0.7-2.4,1.9c0,0.2-0.1,0.4-0.1,0.6V131.8z"/>
		<path d="M719.5,124.1c0,0.5-0.4,1-1,1s-1-0.4-1-1s0.4-1,1-1C719.2,123.1,719.5,123.6,719.5,124.1z M717.8,135.3v-8.7h1.6v8.7
			H717.8z"/>
		<path d="M723.9,124.1v2.5h2.3v1.2h-2.3v4.7c0,1.1,0.3,1.7,1.2,1.7c0.4,0,0.7-0.1,0.9-0.1l0.1,1.2c-0.3,0.1-0.8,0.2-1.4,0.2
			c-0.7,0-1.3-0.2-1.7-0.7c-0.5-0.5-0.6-1.2-0.6-2.3v-4.8H721v-1.2h1.4v-2.1L723.9,124.1z"/>
		<path d="M728.7,131.2c0,2.1,1.4,3,3,3c1.1,0,1.8-0.2,2.4-0.5l0.3,1.1c-0.6,0.3-1.5,0.5-2.9,0.5c-2.7,0-4.3-1.8-4.3-4.4
			c0-2.6,1.5-4.7,4.1-4.7c2.8,0,3.6,2.5,3.6,4.1c0,0.3,0,0.6-0.1,0.7h-6.1V131.2z M733.4,130.1c0-1-0.4-2.6-2.2-2.6
			c-1.6,0-2.3,1.5-2.4,2.6H733.4z"/>
	</g>
</g>
<g id="Layer_2_00000130622773923846559570000000460130126550933660_">
</g>
</svg>
